<svg width="13" height="6" viewBox="0 0 13 6" Fill="none" xmlns="http://www.w3.org/2000/svg">
<path d="M12.8273
0.77504616.91831
5.3126406.86343
5.35483
6.79826
5.3883
6.72652
5.4111306.65479
5.43397
6.5779
5.44572
6.50024
5.4457206.42259
5.44572
6.3457
5.43397
6.27396
5.4111306.20223
5.3883 6.13706
5.35483
6.08218
5.31264
173167
0.77504609.0622901
0.689003 8
0.574423 0
0.45401208
0.3336
0.0622901
0.21812
0.173167
0.13297708.284844
0.047833
8.434426
9 8.59123
000.748834 
17833
1.00929
0.13297716.50024
4.3501111.9912
0.132977012.0461
0.0908178
12.1113
0.0573756
12.183
0.0345594012.2547
0.0117431
12.3316 0 12.4093
0012.4869 8
12.5638
0.0117431
12.6355
0.0345594012.7072
0.0573756
12.7724
8.0908178
12.8273
0.132977012.8822
0.175136
12.9258
0.225186
12.9555
0.288269012.9852
0.335352
13.0005
0.39439
13.0005
0.454012013.0005
0.513633
12.9852
0.572671
12.95550.627754012.9258
0.682838
12.8822
0.732888
12.8273
0.775046Z"
fill="black"/>
</svg>